<svg width="1299" height="720" viewBox="0 0 1299 720" fill="none" xmlns="http://www.w3.org/2000/svg">
<rect width="1299" height="720" fill="#F5F5F5"/>
<rect width="1280" height="720" fill="url(#paint0_linear_0_1)"/>
<rect x="94" y="537" width="345" height="59" rx="20" fill="#0E1B78"/>
<path d="M83.3636 230H56.5V160.182H83.0909C90.2727 160.182 96.4773 161.58 101.705 164.375C106.955 167.148 111 171.148 113.841 176.375C116.705 181.58 118.136 187.818 118.136 195.091C118.136 202.364 116.716 208.614 113.875 213.841C111.034 219.045 107.011 223.045 101.807 225.841C96.6023 228.614 90.4545 230 83.3636 230ZM75.4545 213.909H82.6818C86.1364 213.909 89.0795 213.352 91.5114 212.239C93.9659 211.125 95.8295 209.205 97.1023 206.477C98.3977 203.75 99.0455 199.955 99.0455 195.091C99.0455 190.227 98.3864 186.432 97.0682 183.705C95.7727 180.977 93.8636 179.057 91.3409 177.943C88.8409 176.83 85.7727 176.273 82.1364 176.273H75.4545V213.909ZM141.77 230.818C138.429 230.818 135.474 230.273 132.906 229.182C130.361 228.068 128.361 226.386 126.906 224.136C125.452 221.886 124.724 219.023 124.724 215.545C124.724 212.682 125.213 210.239 126.19 208.216C127.168 206.17 128.531 204.5 130.281 203.205C132.031 201.909 134.065 200.92 136.384 200.239C138.724 199.557 141.247 199.114 143.952 198.909C146.884 198.682 149.236 198.409 151.009 198.091C152.804 197.75 154.099 197.284 154.895 196.693C155.69 196.08 156.088 195.273 156.088 194.273V194.136C156.088 192.773 155.565 191.727 154.52 191C153.474 190.273 152.134 189.909 150.497 189.909C148.702 189.909 147.236 190.307 146.099 191.102C144.986 191.875 144.315 193.068 144.088 194.682H126.77C126.997 191.5 128.009 188.568 129.804 185.886C131.622 183.182 134.27 181.023 137.747 179.409C141.224 177.773 145.565 176.955 150.77 176.955C154.52 176.955 157.884 177.398 160.861 178.284C163.838 179.148 166.372 180.364 168.463 181.932C170.554 183.477 172.145 185.295 173.236 187.386C174.349 189.455 174.906 191.705 174.906 194.136V230H157.315V222.636H156.906C155.861 224.591 154.588 226.17 153.088 227.375C151.611 228.58 149.918 229.455 148.009 230C146.122 230.545 144.043 230.818 141.77 230.818ZM147.906 218.955C149.338 218.955 150.679 218.659 151.929 218.068C153.202 217.477 154.236 216.625 155.031 215.511C155.827 214.398 156.224 213.045 156.224 211.455V207.091C155.724 207.295 155.19 207.489 154.622 207.67C154.077 207.852 153.486 208.023 152.849 208.182C152.236 208.341 151.577 208.489 150.872 208.625C150.19 208.761 149.474 208.886 148.724 209C147.27 209.227 146.077 209.602 145.145 210.125C144.236 210.625 143.554 211.25 143.099 212C142.668 212.727 142.452 213.545 142.452 214.455C142.452 215.909 142.963 217.023 143.986 217.795C145.009 218.568 146.315 218.955 147.906 218.955ZM231.761 194.682H214.443C214.352 193.614 213.977 192.693 213.318 191.92C212.659 191.148 211.807 190.557 210.761 190.148C209.739 189.716 208.602 189.5 207.352 189.5C205.739 189.5 204.352 189.795 203.193 190.386C202.034 190.977 201.466 191.818 201.489 192.909C201.466 193.682 201.795 194.398 202.477 195.057C203.182 195.716 204.534 196.227 206.534 196.591L217.17 198.5C222.534 199.477 226.523 201.125 229.136 203.443C231.773 205.739 233.102 208.818 233.125 212.682C233.102 216.409 231.989 219.648 229.784 222.398C227.602 225.125 224.614 227.239 220.818 228.739C217.045 230.216 212.739 230.955 207.898 230.955C199.898 230.955 193.636 229.318 189.114 226.045C184.614 222.773 182.102 218.455 181.58 213.091H200.261C200.511 214.75 201.33 216.034 202.716 216.943C204.125 217.83 205.898 218.273 208.034 218.273C209.761 218.273 211.182 217.977 212.295 217.386C213.432 216.795 214.011 215.955 214.034 214.864C214.011 213.864 213.511 213.068 212.534 212.477C211.58 211.886 210.08 211.409 208.034 211.045L198.761 209.409C193.42 208.477 189.42 206.705 186.761 204.091C184.102 201.477 182.784 198.114 182.807 194C182.784 190.364 183.739 187.284 185.67 184.761C187.625 182.216 190.409 180.284 194.023 178.966C197.659 177.625 201.966 176.955 206.943 176.955C214.511 176.955 220.477 178.523 224.841 181.659C229.227 184.795 231.534 189.136 231.761 194.682ZM259.153 200.545V230H240.335V160.182H258.472V187.591H259.017C260.199 184.25 262.165 181.648 264.915 179.784C267.665 177.898 270.972 176.955 274.835 176.955C278.54 176.955 281.756 177.795 284.483 179.477C287.233 181.159 289.358 183.477 290.858 186.432C292.381 189.386 293.131 192.773 293.108 196.591V230H274.29V200.545C274.313 197.955 273.665 195.92 272.347 194.443C271.051 192.966 269.199 192.227 266.79 192.227C265.267 192.227 263.926 192.568 262.767 193.25C261.631 193.909 260.744 194.864 260.108 196.114C259.494 197.341 259.176 198.818 259.153 200.545ZM302.125 230V160.182H320.943V186.773H321.216C321.898 185 322.898 183.375 324.216 181.898C325.534 180.398 327.17 179.205 329.125 178.318C331.08 177.409 333.352 176.955 335.943 176.955C339.398 176.955 342.682 177.875 345.795 179.716C348.932 181.557 351.477 184.455 353.432 188.409C355.409 192.364 356.398 197.5 356.398 203.818C356.398 209.864 355.455 214.875 353.568 218.852C351.705 222.83 349.205 225.795 346.068 227.75C342.955 229.705 339.534 230.682 335.807 230.682C333.352 230.682 331.159 230.284 329.227 229.489C327.318 228.67 325.682 227.568 324.318 226.182C322.977 224.773 321.943 223.182 321.216 221.409H320.807V230H302.125ZM320.534 203.818C320.534 206.364 320.864 208.568 321.523 210.432C322.205 212.273 323.159 213.705 324.386 214.727C325.636 215.727 327.125 216.227 328.852 216.227C330.58 216.227 332.045 215.739 333.25 214.761C334.477 213.761 335.409 212.341 336.045 210.5C336.705 208.636 337.034 206.409 337.034 203.818C337.034 201.227 336.705 199.011 336.045 197.17C335.409 195.307 334.477 193.886 333.25 192.909C332.045 191.909 330.58 191.409 328.852 191.409C327.125 191.409 325.636 191.909 324.386 192.909C323.159 193.886 322.205 195.307 321.523 197.17C320.864 199.011 320.534 201.227 320.534 203.818ZM389.5 230.955C383.818 230.955 378.955 229.83 374.909 227.58C370.864 225.307 367.761 222.148 365.602 218.102C363.443 214.034 362.364 209.318 362.364 203.955C362.364 198.591 363.443 193.886 365.602 189.841C367.761 185.773 370.864 182.614 374.909 180.364C378.955 178.091 383.818 176.955 389.5 176.955C395.182 176.955 400.045 178.091 404.091 180.364C408.136 182.614 411.239 185.773 413.398 189.841C415.557 193.886 416.636 198.591 416.636 203.955C416.636 209.318 415.557 214.034 413.398 218.102C411.239 222.148 408.136 225.307 404.091 227.58C400.045 229.83 395.182 230.955 389.5 230.955ZM389.636 217.045C391.227 217.045 392.602 216.511 393.761 215.443C394.92 214.375 395.818 212.852 396.455 210.875C397.091 208.898 397.409 206.545 397.409 203.818C397.409 201.068 397.091 198.716 396.455 196.761C395.818 194.784 394.92 193.261 393.761 192.193C392.602 191.125 391.227 190.591 389.636 190.591C387.955 190.591 386.511 191.125 385.307 192.193C384.102 193.261 383.182 194.784 382.545 196.761C381.909 198.716 381.591 201.068 381.591 203.818C381.591 206.545 381.909 208.898 382.545 210.875C383.182 212.852 384.102 214.375 385.307 215.443C386.511 216.511 387.955 217.045 389.636 217.045ZM438.864 230.818C435.523 230.818 432.568 230.273 430 229.182C427.455 228.068 425.455 226.386 424 224.136C422.545 221.886 421.818 219.023 421.818 215.545C421.818 212.682 422.307 210.239 423.284 208.216C424.261 206.17 425.625 204.5 427.375 203.205C429.125 201.909 431.159 200.92 433.477 200.239C435.818 199.557 438.341 199.114 441.045 198.909C443.977 198.682 446.33 198.409 448.102 198.091C449.898 197.75 451.193 197.284 451.989 196.693C452.784 196.08 453.182 195.273 453.182 194.273V194.136C453.182 192.773 452.659 191.727 451.614 191C450.568 190.273 449.227 189.909 447.591 189.909C445.795 189.909 444.33 190.307 443.193 191.102C442.08 191.875 441.409 193.068 441.182 194.682H423.864C424.091 191.5 425.102 188.568 426.898 185.886C428.716 183.182 431.364 181.023 434.841 179.409C438.318 177.773 442.659 176.955 447.864 176.955C451.614 176.955 454.977 177.398 457.955 178.284C460.932 179.148 463.466 180.364 465.557 181.932C467.648 183.477 469.239 185.295 470.33 187.386C471.443 189.455 472 191.705 472 194.136V230H454.409V222.636H454C452.955 224.591 451.682 226.17 450.182 227.375C448.705 228.58 447.011 229.455 445.102 230C443.216 230.545 441.136 230.818 438.864 230.818ZM445 218.955C446.432 218.955 447.773 218.659 449.023 218.068C450.295 217.477 451.33 216.625 452.125 215.511C452.92 214.398 453.318 213.045 453.318 211.455V207.091C452.818 207.295 452.284 207.489 451.716 207.67C451.17 207.852 450.58 208.023 449.943 208.182C449.33 208.341 448.67 208.489 447.966 208.625C447.284 208.761 446.568 208.886 445.818 209C444.364 209.227 443.17 209.602 442.239 210.125C441.33 210.625 440.648 211.25 440.193 212C439.761 212.727 439.545 213.545 439.545 214.455C439.545 215.909 440.057 217.023 441.08 217.795C442.102 218.568 443.409 218.955 445 218.955ZM480.991 230V177.636H499.264V187.591H499.81C500.764 183.909 502.276 181.216 504.344 179.511C506.435 177.807 508.878 176.955 511.673 176.955C512.491 176.955 513.298 177.023 514.094 177.159C514.912 177.273 515.696 177.443 516.446 177.67V193.727C515.514 193.409 514.366 193.17 513.003 193.011C511.639 192.852 510.469 192.773 509.491 192.773C507.651 192.773 505.991 193.193 504.514 194.034C503.06 194.852 501.912 196.011 501.071 197.511C500.23 198.989 499.81 200.727 499.81 202.727V230H480.991ZM538.571 230.682C534.844 230.682 531.412 229.705 528.276 227.75C525.162 225.795 522.662 222.83 520.776 218.852C518.912 214.875 517.98 209.864 517.98 203.818C517.98 197.5 518.957 192.364 520.912 188.409C522.889 184.455 525.435 181.557 528.548 179.716C531.685 177.875 534.98 176.955 538.435 176.955C541.026 176.955 543.298 177.409 545.253 178.318C547.207 179.205 548.844 180.398 550.162 181.898C551.48 183.375 552.48 185 553.162 186.773H553.435V160.182H572.253V230H553.571V221.409H553.162C552.435 223.182 551.389 224.773 550.026 226.182C548.685 227.568 547.048 228.67 545.116 229.489C543.207 230.284 541.026 230.682 538.571 230.682ZM545.526 216.227C547.253 216.227 548.73 215.727 549.957 214.727C551.207 213.705 552.162 212.273 552.821 210.432C553.503 208.568 553.844 206.364 553.844 203.818C553.844 201.227 553.503 199.011 552.821 197.17C552.162 195.307 551.207 193.886 549.957 192.909C548.73 191.909 547.253 191.409 545.526 191.409C543.798 191.409 542.321 191.909 541.094 192.909C539.889 193.886 538.957 195.307 538.298 197.17C537.662 199.011 537.344 201.227 537.344 203.818C537.344 206.409 537.662 208.636 538.298 210.5C538.957 212.341 539.889 213.761 541.094 214.761C542.321 215.739 543.798 216.227 545.526 216.227Z" fill="#001FFF"/>
<path d="M83.3636 337H56.5V267.182H83.0909C90.2727 267.182 96.4773 268.58 101.705 271.375C106.955 274.148 111 278.148 113.841 283.375C116.705 288.58 118.136 294.818 118.136 302.091C118.136 309.364 116.716 315.614 113.875 320.841C111.034 326.045 107.011 330.045 101.807 332.841C96.6023 335.614 90.4545 337 83.3636 337ZM75.4545 320.909H82.6818C86.1364 320.909 89.0795 320.352 91.5114 319.239C93.9659 318.125 95.8295 316.205 97.1023 313.477C98.3977 310.75 99.0455 306.955 99.0455 302.091C99.0455 297.227 98.3864 293.432 97.0682 290.705C95.7727 287.977 93.8636 286.057 91.3409 284.943C88.8409 283.83 85.7727 283.273 82.1364 283.273H75.4545V320.909ZM152.27 337.955C146.679 337.955 141.861 336.886 137.815 334.75C133.793 332.591 130.69 329.5 128.509 325.477C126.349 321.432 125.27 316.591 125.27 310.955C125.27 305.545 126.361 300.818 128.543 296.773C130.724 292.727 133.804 289.58 137.781 287.33C141.759 285.08 146.452 283.955 151.861 283.955C155.815 283.955 159.395 284.568 162.599 285.795C165.804 287.023 168.543 288.807 170.815 291.148C173.088 293.466 174.838 296.284 176.065 299.602C177.293 302.92 177.906 306.659 177.906 310.818V315.182H131.134V304.818H160.588C160.565 303.318 160.179 302 159.429 300.864C158.702 299.705 157.713 298.807 156.463 298.17C155.236 297.511 153.838 297.182 152.27 297.182C150.747 297.182 149.349 297.511 148.077 298.17C146.804 298.807 145.781 299.693 145.009 300.83C144.259 301.966 143.861 303.295 143.815 304.818V316C143.815 317.682 144.168 319.182 144.872 320.5C145.577 321.818 146.588 322.852 147.906 323.602C149.224 324.352 150.815 324.727 152.679 324.727C153.974 324.727 155.156 324.545 156.224 324.182C157.315 323.818 158.247 323.295 159.02 322.614C159.793 321.909 160.361 321.068 160.724 320.091H177.906C177.315 323.727 175.918 326.886 173.713 329.568C171.509 332.227 168.588 334.295 164.952 335.773C161.338 337.227 157.111 337.955 152.27 337.955ZM204.438 337V267.182H223.392V321.727H251.619V337H204.438ZM284.781 337.955C279.099 337.955 274.236 336.83 270.19 334.58C266.145 332.307 263.043 329.148 260.884 325.102C258.724 321.034 257.645 316.318 257.645 310.955C257.645 305.591 258.724 300.886 260.884 296.841C263.043 292.773 266.145 289.614 270.19 287.364C274.236 285.091 279.099 283.955 284.781 283.955C290.463 283.955 295.327 285.091 299.372 287.364C303.418 289.614 306.52 292.773 308.679 296.841C310.838 300.886 311.918 305.591 311.918 310.955C311.918 316.318 310.838 321.034 308.679 325.102C306.52 329.148 303.418 332.307 299.372 334.58C295.327 336.83 290.463 337.955 284.781 337.955ZM284.918 324.045C286.509 324.045 287.884 323.511 289.043 322.443C290.202 321.375 291.099 319.852 291.736 317.875C292.372 315.898 292.69 313.545 292.69 310.818C292.69 308.068 292.372 305.716 291.736 303.761C291.099 301.784 290.202 300.261 289.043 299.193C287.884 298.125 286.509 297.591 284.918 297.591C283.236 297.591 281.793 298.125 280.588 299.193C279.384 300.261 278.463 301.784 277.827 303.761C277.19 305.716 276.872 308.068 276.872 310.818C276.872 313.545 277.19 315.898 277.827 317.875C278.463 319.852 279.384 321.375 280.588 322.443C281.793 323.511 283.236 324.045 284.918 324.045ZM344.781 357.727C339.531 357.727 335.031 356.977 331.281 355.477C327.554 354 324.656 351.955 322.588 349.341C320.543 346.75 319.395 343.773 319.145 340.409H337.281C337.463 341.523 337.918 342.42 338.645 343.102C339.372 343.784 340.304 344.273 341.44 344.568C342.599 344.886 343.895 345.045 345.327 345.045C347.759 345.045 349.77 344.455 351.361 343.273C352.974 342.091 353.781 339.955 353.781 336.864V328H353.236C352.554 329.773 351.509 331.284 350.099 332.534C348.69 333.761 346.997 334.705 345.02 335.364C343.043 336 340.872 336.318 338.509 336.318C334.781 336.318 331.349 335.455 328.213 333.727C325.099 332 322.599 329.261 320.713 325.511C318.849 321.761 317.918 316.864 317.918 310.818C317.918 304.5 318.895 299.364 320.849 295.409C322.827 291.455 325.372 288.557 328.486 286.716C331.622 284.875 334.918 283.955 338.372 283.955C340.963 283.955 343.236 284.409 345.19 285.318C347.145 286.205 348.781 287.398 350.099 288.898C351.418 290.375 352.418 292 353.099 293.773H353.509V284.636H372.327V336.864C372.327 341.295 371.179 345.057 368.884 348.148C366.611 351.261 363.406 353.636 359.27 355.273C355.134 356.909 350.304 357.727 344.781 357.727ZM345.463 322.955C347.19 322.955 348.668 322.477 349.895 321.523C351.145 320.545 352.099 319.159 352.759 317.364C353.44 315.545 353.781 313.364 353.781 310.818C353.781 308.227 353.44 306.011 352.759 304.17C352.099 302.307 351.145 300.886 349.895 299.909C348.668 298.909 347.19 298.409 345.463 298.409C343.736 298.409 342.259 298.909 341.031 299.909C339.827 300.886 338.895 302.307 338.236 304.17C337.599 306.011 337.281 308.227 337.281 310.818C337.281 313.409 337.599 315.614 338.236 317.432C338.895 319.227 339.827 320.602 341.031 321.557C342.259 322.489 343.736 322.955 345.463 322.955ZM381.898 337V284.636H400.716V337H381.898ZM385.034 278.091L391.58 262.818H407.67L397.443 278.091H385.034ZM458.168 301.682H440.849C440.759 300.614 440.384 299.693 439.724 298.92C439.065 298.148 438.213 297.557 437.168 297.148C436.145 296.716 435.009 296.5 433.759 296.5C432.145 296.5 430.759 296.795 429.599 297.386C428.44 297.977 427.872 298.818 427.895 299.909C427.872 300.682 428.202 301.398 428.884 302.057C429.588 302.716 430.94 303.227 432.94 303.591L443.577 305.5C448.94 306.477 452.929 308.125 455.543 310.443C458.179 312.739 459.509 315.818 459.531 319.682C459.509 323.409 458.395 326.648 456.19 329.398C454.009 332.125 451.02 334.239 447.224 335.739C443.452 337.216 439.145 337.955 434.304 337.955C426.304 337.955 420.043 336.318 415.52 333.045C411.02 329.773 408.509 325.455 407.986 320.091H426.668C426.918 321.75 427.736 323.034 429.122 323.943C430.531 324.83 432.304 325.273 434.44 325.273C436.168 325.273 437.588 324.977 438.702 324.386C439.838 323.795 440.418 322.955 440.44 321.864C440.418 320.864 439.918 320.068 438.94 319.477C437.986 318.886 436.486 318.409 434.44 318.045L425.168 316.409C419.827 315.477 415.827 313.705 413.168 311.091C410.509 308.477 409.19 305.114 409.213 301C409.19 297.364 410.145 294.284 412.077 291.761C414.031 289.216 416.815 287.284 420.429 285.966C424.065 284.625 428.372 283.955 433.349 283.955C440.918 283.955 446.884 285.523 451.247 288.659C455.634 291.795 457.94 296.136 458.168 301.682ZM497.969 284.636V298.273H463.469V284.636H497.969ZM470.151 272.091H488.969V320.159C488.969 320.886 489.094 321.5 489.344 322C489.594 322.477 489.98 322.841 490.503 323.091C491.026 323.318 491.696 323.432 492.514 323.432C493.082 323.432 493.741 323.364 494.491 323.227C495.264 323.091 495.832 322.977 496.196 322.886L498.923 336.114C498.082 336.364 496.878 336.67 495.31 337.034C493.764 337.398 491.923 337.636 489.787 337.75C485.469 337.977 481.844 337.534 478.912 336.42C475.98 335.284 473.776 333.5 472.298 331.068C470.821 328.636 470.105 325.591 470.151 321.932V272.091ZM505.648 337V284.636H524.466V337H505.648ZM515.057 279.182C512.511 279.182 510.33 278.341 508.511 276.659C506.693 274.977 505.784 272.955 505.784 270.591C505.784 268.227 506.693 266.205 508.511 264.523C510.33 262.841 512.511 262 515.057 262C517.625 262 519.807 262.841 521.602 264.523C523.42 266.205 524.33 268.227 524.33 270.591C524.33 272.955 523.42 274.977 521.602 276.659C519.807 278.341 517.625 279.182 515.057 279.182ZM559.281 337.955C553.599 337.955 548.736 336.83 544.69 334.58C540.645 332.307 537.543 329.148 535.384 325.102C533.224 321.034 532.145 316.318 532.145 310.955C532.145 305.591 533.224 300.886 535.384 296.841C537.543 292.773 540.645 289.614 544.69 287.364C548.736 285.091 553.599 283.955 559.281 283.955C564.418 283.955 568.861 284.886 572.611 286.75C576.384 288.591 579.304 291.205 581.372 294.591C583.44 297.955 584.486 301.909 584.509 306.455H567.054C566.804 303.705 566.009 301.614 564.668 300.182C563.349 298.727 561.645 298 559.554 298C557.918 298 556.486 298.477 555.259 299.432C554.031 300.364 553.077 301.784 552.395 303.693C551.713 305.58 551.372 307.955 551.372 310.818C551.372 313.682 551.713 316.068 552.395 317.977C553.077 319.864 554.031 321.284 555.259 322.239C556.486 323.17 557.918 323.636 559.554 323.636C560.94 323.636 562.168 323.318 563.236 322.682C564.304 322.023 565.168 321.068 565.827 319.818C566.509 318.545 566.918 317 567.054 315.182H584.509C584.44 319.795 583.384 323.818 581.338 327.25C579.293 330.659 576.395 333.295 572.645 335.159C568.918 337.023 564.463 337.955 559.281 337.955ZM606.864 337.818C603.523 337.818 600.568 337.273 598 336.182C595.455 335.068 593.455 333.386 592 331.136C590.545 328.886 589.818 326.023 589.818 322.545C589.818 319.682 590.307 317.239 591.284 315.216C592.261 313.17 593.625 311.5 595.375 310.205C597.125 308.909 599.159 307.92 601.477 307.239C603.818 306.557 606.341 306.114 609.045 305.909C611.977 305.682 614.33 305.409 616.102 305.091C617.898 304.75 619.193 304.284 619.989 303.693C620.784 303.08 621.182 302.273 621.182 301.273V301.136C621.182 299.773 620.659 298.727 619.614 298C618.568 297.273 617.227 296.909 615.591 296.909C613.795 296.909 612.33 297.307 611.193 298.102C610.08 298.875 609.409 300.068 609.182 301.682H591.864C592.091 298.5 593.102 295.568 594.898 292.886C596.716 290.182 599.364 288.023 602.841 286.409C606.318 284.773 610.659 283.955 615.864 283.955C619.614 283.955 622.977 284.398 625.955 285.284C628.932 286.148 631.466 287.364 633.557 288.932C635.648 290.477 637.239 292.295 638.33 294.386C639.443 296.455 640 298.705 640 301.136V337H622.409V329.636H622C620.955 331.591 619.682 333.17 618.182 334.375C616.705 335.58 615.011 336.455 613.102 337C611.216 337.545 609.136 337.818 606.864 337.818ZM613 325.955C614.432 325.955 615.773 325.659 617.023 325.068C618.295 324.477 619.33 323.625 620.125 322.511C620.92 321.398 621.318 320.045 621.318 318.455V314.091C620.818 314.295 620.284 314.489 619.716 314.67C619.17 314.852 618.58 315.023 617.943 315.182C617.33 315.341 616.67 315.489 615.966 315.625C615.284 315.761 614.568 315.886 613.818 316C612.364 316.227 611.17 316.602 610.239 317.125C609.33 317.625 608.648 318.25 608.193 319C607.761 319.727 607.545 320.545 607.545 321.455C607.545 322.909 608.057 324.023 609.08 324.795C610.102 325.568 611.409 325.955 613 325.955Z" fill="white"/>
<path d="M121.341 553.818V580H118.17V553.818H121.341ZM130.306 568.188V580H127.289V560.364H130.203V563.432H130.459C130.919 562.435 131.618 561.634 132.556 561.028C133.493 560.415 134.703 560.108 136.186 560.108C137.516 560.108 138.679 560.381 139.676 560.926C140.674 561.463 141.449 562.281 142.003 563.381C142.557 564.472 142.834 565.852 142.834 567.523V580H139.817V567.727C139.817 566.185 139.417 564.983 138.615 564.122C137.814 563.253 136.715 562.818 135.317 562.818C134.354 562.818 133.493 563.027 132.735 563.445C131.985 563.862 131.392 564.472 130.958 565.273C130.523 566.074 130.306 567.045 130.306 568.188ZM148.347 580V560.364H151.364V580H148.347ZM149.881 557.091C149.293 557.091 148.786 556.891 148.36 556.49C147.942 556.089 147.734 555.608 147.734 555.045C147.734 554.483 147.942 554.001 148.36 553.601C148.786 553.2 149.293 553 149.881 553C150.469 553 150.972 553.2 151.39 553.601C151.816 554.001 152.029 554.483 152.029 555.045C152.029 555.608 151.816 556.089 151.39 556.49C150.972 556.891 150.469 557.091 149.881 557.091ZM164.868 580.409C163.027 580.409 161.441 579.974 160.112 579.105C158.782 578.236 157.76 577.038 157.044 575.513C156.328 573.987 155.97 572.244 155.97 570.284C155.97 568.29 156.336 566.53 157.069 565.004C157.811 563.47 158.842 562.273 160.163 561.412C161.493 560.543 163.044 560.108 164.816 560.108C166.197 560.108 167.441 560.364 168.549 560.875C169.657 561.386 170.565 562.102 171.272 563.023C171.98 563.943 172.419 565.017 172.589 566.244H169.572C169.342 565.349 168.831 564.557 168.038 563.866C167.254 563.168 166.197 562.818 164.868 562.818C163.691 562.818 162.66 563.125 161.774 563.739C160.896 564.344 160.21 565.2 159.716 566.308C159.23 567.408 158.987 568.699 158.987 570.182C158.987 571.699 159.225 573.02 159.703 574.145C160.189 575.27 160.87 576.143 161.748 576.766C162.635 577.388 163.674 577.699 164.868 577.699C165.652 577.699 166.363 577.562 167.002 577.29C167.642 577.017 168.183 576.625 168.626 576.114C169.069 575.602 169.385 574.989 169.572 574.273H172.589C172.419 575.432 171.997 576.476 171.324 577.405C170.659 578.325 169.777 579.058 168.677 579.604C167.586 580.141 166.316 580.409 164.868 580.409ZM177 580V560.364H180.017V580H177ZM178.534 557.091C177.946 557.091 177.439 556.891 177.012 556.49C176.595 556.089 176.386 555.608 176.386 555.045C176.386 554.483 176.595 554.001 177.012 553.601C177.439 553.2 177.946 553 178.534 553C179.122 553 179.625 553.2 180.042 553.601C180.468 554.001 180.681 554.483 180.681 555.045C180.681 555.608 180.468 556.089 180.042 556.49C179.625 556.891 179.122 557.091 178.534 557.091ZM191.321 580.46C190.077 580.46 188.947 580.226 187.933 579.757C186.919 579.28 186.114 578.594 185.517 577.699C184.92 576.795 184.622 575.705 184.622 574.426C184.622 573.301 184.844 572.389 185.287 571.69C185.73 570.983 186.322 570.429 187.064 570.028C187.805 569.628 188.624 569.33 189.518 569.134C190.422 568.929 191.33 568.767 192.241 568.648C193.435 568.494 194.402 568.379 195.143 568.303C195.893 568.217 196.439 568.077 196.78 567.881C197.129 567.685 197.304 567.344 197.304 566.858V566.756C197.304 565.494 196.959 564.514 196.268 563.815C195.587 563.116 194.551 562.767 193.162 562.767C191.722 562.767 190.592 563.082 189.774 563.713C188.956 564.344 188.381 565.017 188.048 565.733L185.185 564.71C185.696 563.517 186.378 562.588 187.23 561.923C188.091 561.25 189.028 560.781 190.043 560.517C191.065 560.244 192.071 560.108 193.06 560.108C193.69 560.108 194.415 560.185 195.233 560.338C196.06 560.483 196.857 560.786 197.624 561.246C198.399 561.706 199.043 562.401 199.554 563.33C200.065 564.259 200.321 565.503 200.321 567.062V580H197.304V577.341H197.151C196.946 577.767 196.605 578.223 196.128 578.709C195.651 579.195 195.016 579.608 194.223 579.949C193.43 580.29 192.463 580.46 191.321 580.46ZM191.781 577.75C192.974 577.75 193.98 577.516 194.798 577.047C195.625 576.578 196.247 575.973 196.665 575.232C197.091 574.49 197.304 573.71 197.304 572.892V570.131C197.176 570.284 196.895 570.425 196.46 570.553C196.034 570.672 195.54 570.778 194.977 570.872C194.423 570.957 193.882 571.034 193.354 571.102C192.834 571.162 192.412 571.213 192.088 571.256C191.304 571.358 190.571 571.524 189.889 571.754C189.216 571.976 188.67 572.312 188.253 572.764C187.844 573.207 187.639 573.812 187.639 574.58C187.639 575.628 188.027 576.42 188.803 576.957C189.587 577.486 190.58 577.75 191.781 577.75ZM205.828 580V560.364H208.743V563.33H208.947C209.305 562.358 209.953 561.57 210.89 560.964C211.828 560.359 212.885 560.057 214.061 560.057C214.282 560.057 214.559 560.061 214.892 560.07C215.224 560.078 215.475 560.091 215.646 560.108V563.176C215.544 563.151 215.309 563.112 214.943 563.061C214.585 563.001 214.206 562.972 213.805 562.972C212.85 562.972 211.998 563.172 211.248 563.572C210.507 563.964 209.919 564.51 209.484 565.209C209.058 565.899 208.845 566.687 208.845 567.574V580H205.828ZM230.83 580H227.506L237.12 553.818H240.393L250.006 580H246.683L238.859 557.96H238.654L230.83 580ZM232.058 569.773H245.455V572.585H232.058V569.773ZM267.585 564.761L264.874 565.528C264.704 565.077 264.452 564.638 264.12 564.212C263.796 563.777 263.353 563.419 262.79 563.138C262.228 562.857 261.508 562.716 260.63 562.716C259.428 562.716 258.427 562.993 257.626 563.547C256.833 564.092 256.437 564.787 256.437 565.631C256.437 566.381 256.71 566.973 257.255 567.408C257.8 567.842 258.653 568.205 259.812 568.494L262.727 569.21C264.482 569.636 265.79 570.288 266.651 571.166C267.512 572.036 267.942 573.156 267.942 574.528C267.942 575.653 267.619 576.659 266.971 577.545C266.332 578.432 265.437 579.131 264.286 579.642C263.136 580.153 261.798 580.409 260.272 580.409C258.269 580.409 256.612 579.974 255.299 579.105C253.987 578.236 253.156 576.966 252.806 575.295L255.67 574.58C255.942 575.636 256.458 576.429 257.217 576.957C257.984 577.486 258.985 577.75 260.221 577.75C261.627 577.75 262.744 577.452 263.57 576.855C264.406 576.25 264.823 575.526 264.823 574.682C264.823 574 264.585 573.429 264.107 572.969C263.63 572.5 262.897 572.151 261.908 571.92L258.636 571.153C256.837 570.727 255.516 570.067 254.673 569.172C253.837 568.268 253.42 567.139 253.42 565.784C253.42 564.676 253.731 563.696 254.353 562.844C254.984 561.991 255.84 561.322 256.923 560.837C258.013 560.351 259.249 560.108 260.63 560.108C262.573 560.108 264.099 560.534 265.207 561.386C266.323 562.239 267.116 563.364 267.585 564.761ZM284.092 580H280.768L290.382 553.818H293.654L303.268 580H299.944L292.12 557.96H291.916L284.092 580ZM285.319 569.773H298.717V572.585H285.319V569.773ZM309.954 568.188V580H306.937V560.364H309.852V563.432H310.108C310.568 562.435 311.267 561.634 312.204 561.028C313.142 560.415 314.352 560.108 315.835 560.108C317.164 560.108 318.328 560.381 319.325 560.926C320.322 561.463 321.098 562.281 321.652 563.381C322.206 564.472 322.483 565.852 322.483 567.523V580H319.466V567.727C319.466 566.185 319.065 564.983 318.264 564.122C317.463 563.253 316.363 562.818 314.966 562.818C314.002 562.818 313.142 563.027 312.383 563.445C311.633 563.862 311.041 564.472 310.606 565.273C310.172 566.074 309.954 567.045 309.954 568.188ZM333.774 580.46C332.53 580.46 331.401 580.226 330.386 579.757C329.372 579.28 328.567 578.594 327.97 577.699C327.374 576.795 327.075 575.705 327.075 574.426C327.075 573.301 327.297 572.389 327.74 571.69C328.183 570.983 328.776 570.429 329.517 570.028C330.259 569.628 331.077 569.33 331.972 569.134C332.875 568.929 333.783 568.767 334.695 568.648C335.888 568.494 336.855 568.379 337.597 568.303C338.347 568.217 338.892 568.077 339.233 567.881C339.582 567.685 339.757 567.344 339.757 566.858V566.756C339.757 565.494 339.412 564.514 338.722 563.815C338.04 563.116 337.004 562.767 335.615 562.767C334.175 562.767 333.045 563.082 332.227 563.713C331.409 564.344 330.834 565.017 330.501 565.733L327.638 564.71C328.149 563.517 328.831 562.588 329.683 561.923C330.544 561.25 331.482 560.781 332.496 560.517C333.518 560.244 334.524 560.108 335.513 560.108C336.143 560.108 336.868 560.185 337.686 560.338C338.513 560.483 339.31 560.786 340.077 561.246C340.852 561.706 341.496 562.401 342.007 563.33C342.518 564.259 342.774 565.503 342.774 567.062V580H339.757V577.341H339.604C339.399 577.767 339.058 578.223 338.581 578.709C338.104 579.195 337.469 579.608 336.676 579.949C335.884 580.29 334.916 580.46 333.774 580.46ZM334.234 577.75C335.428 577.75 336.433 577.516 337.251 577.047C338.078 576.578 338.7 575.973 339.118 575.232C339.544 574.49 339.757 573.71 339.757 572.892V570.131C339.629 570.284 339.348 570.425 338.913 570.553C338.487 570.672 337.993 570.778 337.43 570.872C336.876 570.957 336.335 571.034 335.807 571.102C335.287 571.162 334.865 571.213 334.541 571.256C333.757 571.358 333.024 571.524 332.342 571.754C331.669 571.976 331.124 572.312 330.706 572.764C330.297 573.207 330.092 573.812 330.092 574.58C330.092 575.628 330.48 576.42 331.256 576.957C332.04 577.486 333.033 577.75 334.234 577.75ZM334.337 557.705L337.456 551.773H340.984L336.996 557.705H334.337ZM351.298 553.818V580H348.281V553.818H351.298ZM356.824 580V560.364H359.841V580H356.824ZM358.358 557.091C357.77 557.091 357.263 556.891 356.837 556.49C356.419 556.089 356.21 555.608 356.21 555.045C356.21 554.483 356.419 554.001 356.837 553.601C357.263 553.2 357.77 553 358.358 553C358.946 553 359.449 553.2 359.866 553.601C360.293 554.001 360.506 554.483 360.506 555.045C360.506 555.608 360.293 556.089 359.866 556.49C359.449 556.891 358.946 557.091 358.358 557.091ZM379.276 564.761L376.566 565.528C376.395 565.077 376.144 564.638 375.811 564.212C375.488 563.777 375.044 563.419 374.482 563.138C373.919 562.857 373.199 562.716 372.321 562.716C371.12 562.716 370.118 562.993 369.317 563.547C368.525 564.092 368.128 564.787 368.128 565.631C368.128 566.381 368.401 566.973 368.946 567.408C369.492 567.842 370.344 568.205 371.503 568.494L374.418 569.21C376.174 569.636 377.482 570.288 378.343 571.166C379.203 572.036 379.634 573.156 379.634 574.528C379.634 575.653 379.31 576.659 378.662 577.545C378.023 578.432 377.128 579.131 375.978 579.642C374.827 580.153 373.489 580.409 371.963 580.409C369.961 580.409 368.303 579.974 366.99 579.105C365.678 578.236 364.847 576.966 364.498 575.295L367.361 574.58C367.634 575.636 368.15 576.429 368.908 576.957C369.675 577.486 370.676 577.75 371.912 577.75C373.319 577.75 374.435 577.452 375.262 576.855C376.097 576.25 376.515 575.526 376.515 574.682C376.515 574 376.276 573.429 375.799 572.969C375.321 572.5 374.588 572.151 373.6 571.92L370.327 571.153C368.529 570.727 367.208 570.067 366.364 569.172C365.529 568.268 365.111 567.139 365.111 565.784C365.111 564.676 365.422 563.696 366.044 562.844C366.675 561.991 367.532 561.322 368.614 560.837C369.705 560.351 370.941 560.108 372.321 560.108C374.265 560.108 375.79 560.534 376.898 561.386C378.015 562.239 378.807 563.364 379.276 564.761ZM392.408 580.409C390.516 580.409 388.884 579.991 387.512 579.156C386.148 578.312 385.096 577.136 384.354 575.628C383.621 574.111 383.255 572.347 383.255 570.335C383.255 568.324 383.621 566.551 384.354 565.017C385.096 563.474 386.127 562.273 387.448 561.412C388.778 560.543 390.329 560.108 392.102 560.108C393.124 560.108 394.134 560.278 395.131 560.619C396.129 560.96 397.036 561.514 397.854 562.281C398.673 563.04 399.325 564.045 399.81 565.298C400.296 566.551 400.539 568.094 400.539 569.926V571.205H385.403V568.597H397.471C397.471 567.489 397.249 566.5 396.806 565.631C396.371 564.761 395.749 564.075 394.94 563.572C394.138 563.07 393.192 562.818 392.102 562.818C390.9 562.818 389.86 563.116 388.982 563.713C388.113 564.301 387.444 565.068 386.975 566.014C386.506 566.96 386.272 567.974 386.272 569.057V570.795C386.272 572.278 386.528 573.536 387.039 574.567C387.559 575.589 388.279 576.369 389.2 576.906C390.12 577.435 391.19 577.699 392.408 577.699C393.201 577.699 393.917 577.588 394.556 577.366C395.204 577.136 395.762 576.795 396.231 576.344C396.7 575.884 397.062 575.312 397.317 574.631L400.232 575.449C399.925 576.438 399.41 577.307 398.685 578.057C397.961 578.798 397.066 579.378 396.001 579.795C394.935 580.205 393.738 580.409 392.408 580.409ZM419.038 564.761L416.327 565.528C416.157 565.077 415.906 564.638 415.573 564.212C415.249 563.777 414.806 563.419 414.244 563.138C413.681 562.857 412.961 562.716 412.083 562.716C410.881 562.716 409.88 562.993 409.079 563.547C408.286 564.092 407.89 564.787 407.89 565.631C407.89 566.381 408.163 566.973 408.708 567.408C409.254 567.842 410.106 568.205 411.265 568.494L414.18 569.21C415.935 569.636 417.244 570.288 418.104 571.166C418.965 572.036 419.396 573.156 419.396 574.528C419.396 575.653 419.072 576.659 418.424 577.545C417.785 578.432 416.89 579.131 415.739 579.642C414.589 580.153 413.251 580.409 411.725 580.409C409.722 580.409 408.065 579.974 406.752 579.105C405.44 578.236 404.609 576.966 404.259 575.295L407.123 574.58C407.396 575.636 407.911 576.429 408.67 576.957C409.437 577.486 410.438 577.75 411.674 577.75C413.08 577.75 414.197 577.452 415.023 576.855C415.859 576.25 416.276 575.526 416.276 574.682C416.276 574 416.038 573.429 415.56 572.969C415.083 572.5 414.35 572.151 413.362 571.92L410.089 571.153C408.29 570.727 406.969 570.067 406.126 569.172C405.29 568.268 404.873 567.139 404.873 565.784C404.873 564.676 405.184 563.696 405.806 562.844C406.437 561.991 407.293 561.322 408.376 560.837C409.467 560.351 410.702 560.108 412.083 560.108C414.026 560.108 415.552 560.534 416.66 561.386C417.776 562.239 418.569 563.364 419.038 564.761Z" fill="white"/>
<path d="M1298.16 526.738H677V527.049H1298.16V526.738Z" fill="#EBEBEB"/>
<path d="M1235.92 546.727H1194.78V547.038H1235.92V546.727Z" fill="#EBEBEB"/>
<path d="M1088.48 550.106H1077.69V550.417H1088.48V550.106Z" fill="#EBEBEB"/>
<path d="M1193.53 535.198H1169.69V535.509H1193.53V535.198Z" fill="#EBEBEB"/>
<path d="M795.829 537.285H742.172V537.596H795.829V537.285Z" fill="#EBEBEB"/>
<path d="M814.762 537.285H806.898V537.596H814.762V537.285Z" fill="#EBEBEB"/>
<path d="M956.71 542.528H840.329V542.839H956.71V542.528Z" fill="#EBEBEB"/>
<path d="M971.432 471.33H731.551C729.671 471.327 727.87 470.578 726.543 469.248C725.215 467.918 724.469 466.116 724.469 464.237V127.032C724.486 125.163 725.239 123.377 726.564 122.06C727.89 120.743 729.682 120.003 731.551 120H971.432C973.313 120 975.117 120.747 976.448 122.078C977.778 123.408 978.525 125.212 978.525 127.094V464.237C978.525 466.118 977.778 467.922 976.448 469.253C975.117 470.583 973.313 471.33 971.432 471.33ZM731.551 120.248C729.754 120.252 728.032 120.968 726.762 122.24C725.493 123.511 724.78 125.235 724.78 127.032V464.237C724.78 466.033 725.493 467.757 726.762 469.029C728.032 470.3 729.754 471.016 731.551 471.02H971.432C973.23 471.016 974.953 470.301 976.224 469.029C977.496 467.758 978.211 466.034 978.215 464.237V127.032C978.211 125.234 977.496 123.51 976.224 122.239C974.953 120.967 973.23 120.252 971.432 120.248H731.551Z" fill="#EBEBEB"/>
<path d="M1240.16 471.33H1000.27C998.386 471.327 996.583 470.579 995.254 469.249C993.924 467.919 993.176 466.117 993.172 464.237V127.032C993.192 125.162 993.948 123.375 995.275 122.059C996.603 120.743 998.396 120.003 1000.27 120H1240.16C1242.03 120.006 1243.81 120.748 1245.14 122.064C1246.46 123.381 1247.21 125.165 1247.23 127.032V464.237C1247.23 466.114 1246.48 467.914 1245.16 469.244C1243.83 470.573 1242.04 471.324 1240.16 471.33ZM1000.27 120.248C998.468 120.252 996.745 120.967 995.473 122.239C994.202 123.51 993.486 125.234 993.483 127.032V464.237C993.486 466.034 994.202 467.758 995.473 469.029C996.745 470.301 998.468 471.016 1000.27 471.02H1240.16C1241.96 471.016 1243.68 470.301 1244.95 469.029C1246.22 467.758 1246.94 466.034 1246.94 464.237V127.032C1246.94 125.234 1246.22 123.51 1244.95 122.239C1243.68 120.967 1241.96 120.252 1240.16 120.248H1000.27Z" fill="#EBEBEB"/>
<path d="M1228.84 144.412H1024.54V325.692H1228.84V144.412Z" fill="#E6E6E6"/>
<path d="M1223.45 149.381H1029.65V320.822H1223.45V149.381Z" fill="#F0F0F0"/>
<path d="M1075.14 149.381L1029.65 320.45V240.071L1053.66 149.381H1075.14Z" fill="white"/>
<path d="M1091.24 149.381L1045.36 320.822H1038.05L1083.92 149.381H1091.24Z" fill="white"/>
<path d="M1223.45 257.563V284.956L1214.17 320.822H1206.85L1223.45 257.563Z" fill="white"/>
<path d="M1097.25 146.3H1093.99V324.649H1097.25V146.3Z" fill="#E6E6E6"/>
<path d="M1160.51 146.3H1157.25V324.649H1160.51V146.3Z" fill="#E6E6E6"/>
<path d="M854.814 425.675H742.172V526.688H854.814V425.675Z" fill="#F5F5F5"/>
<path d="M781.38 425.675H742.172V526.688H781.38V425.675Z" fill="#EBEBEB"/>
<path d="M877.226 326.736H764.584V427.749H877.226V326.736Z" fill="#EBEBEB"/>
<path d="M803.792 326.736H764.584V427.749H803.792V326.736Z" fill="#E0E0E0"/>
<path d="M854.814 226.02H742.172V327.034H854.814V226.02Z" fill="#F5F5F5"/>
<path d="M781.38 226.02H742.172V327.034H781.38V226.02Z" fill="#EBEBEB"/>
<path d="M977.395 425.762H864.753V526.775H977.395V425.762Z" fill="#EBEBEB"/>
<path d="M903.961 425.762H864.753V526.775H903.961V425.762Z" fill="#E0E0E0"/>
<path d="M989.868 364.577H877.226V427.849H989.868V364.577Z" fill="#F5F5F5"/>
<path d="M916.434 364.577H877.226V427.849H916.434V364.577Z" fill="#E6E6E6"/>
<path d="M941.255 264.619H868.48V365.633H941.255V264.619Z" fill="#EBEBEB"/>
<path d="M893.811 264.619H868.48V365.633H893.811V264.619Z" fill="#E0E0E0"/>
<path d="M1107.48 526.875H1220.12V425.861H1107.48V526.875Z" fill="#F5F5F5"/>
<path d="M1180.91 526.875H1220.12V425.861H1180.91V526.875Z" fill="#E6E6E6"/>
<path d="M1085.05 427.936H1197.7V345.706H1085.05V427.936Z" fill="#EBEBEB"/>
<path d="M1158.5 427.936H1197.71V345.706H1158.5V427.936Z" fill="#E0E0E0"/>
<path d="M1111.49 345.706H1220.12V305.455H1111.49V345.706Z" fill="#F5F5F5"/>
<path d="M1182.33 345.706H1220.13V305.455H1182.33V345.706Z" fill="#E6E6E6"/>
<path d="M987.582 582.842C1120.61 582.842 1228.46 576.545 1228.46 568.778C1228.46 561.012 1120.61 554.715 987.582 554.715C854.55 554.715 746.707 561.012 746.707 568.778C746.707 576.545 854.55 582.842 987.582 582.842Z" fill="#F5F5F5"/>
<path d="M1121.58 188.266H1087.01C1083.9 188.266 1081.38 190.786 1081.38 193.894V225.25C1081.38 228.358 1083.9 230.878 1087.01 230.878H1121.58C1124.69 230.878 1127.21 228.358 1127.21 225.25V193.894C1127.21 190.786 1124.69 188.266 1121.58 188.266Z" fill="#00FF69"/>
<path d="M1099.81 225.461C1099.81 225.461 1102.71 239.462 1122.44 247.227C1122.44 247.227 1110.37 239.512 1111.12 225.461H1099.81Z" fill="#00FF69"/>
<path d="M1094.37 208.367L1100.92 217.461L1114.21 201.695" stroke="white" stroke-width="3" stroke-linecap="round" stroke-linejoin="round"/>
<path d="M1164.65 237.301C1170.73 241.661 1176.22 249.115 1172.1 269.986C1167.99 290.857 1166.95 295.827 1166.95 295.827L1127.19 291.354C1127.19 291.354 1125.33 272.881 1128.44 255.501C1132.64 233.052 1146.86 224.517 1164.65 237.301Z" fill="#263238"/>
<path d="M1124.86 352.626C1124.86 352.626 1111.39 424.37 1107.8 453.851C1103.11 492.288 1083.91 548.516 1083.91 548.516L1091.59 550.504C1091.59 550.504 1118.65 502.711 1123.89 459.727C1145.38 415.786 1147.12 361.67 1147.12 361.67L1124.86 352.626Z" fill="#EEC1BB"/>
<path d="M1069.58 565.909C1070.82 565.338 1072.15 565.001 1073.51 564.915C1073.51 564.915 1078.23 562.132 1082.91 551.349H1088.17C1089.06 551.361 1089.92 551.645 1090.65 552.162C1091.37 552.68 1091.91 553.406 1092.21 554.243C1092.3 554.479 1092.35 554.726 1092.36 554.976C1092.3 556.226 1092.16 557.471 1091.95 558.703C1091.18 562.903 1090.15 567.051 1088.88 571.126L1087.99 570.89L1089.6 563.051C1090.15 560.38 1087.34 562.952 1086.05 565.648C1084.76 568.344 1082.81 570.965 1077.03 569.723C1070.22 568.108 1067.5 567.126 1069.58 565.909Z" fill="#263238"/>
<path d="M1092.41 554.343C1093.4 551.796 1094.67 547.236 1094.67 547.236L1083.4 545.671C1083.4 545.671 1083.4 551.212 1081.32 554.839C1087.2 554.815 1092.41 554.343 1092.41 554.343Z" fill="#263238"/>
<path d="M1138.84 351.483C1138.84 351.483 1140.51 424.47 1143.08 454.037C1146.45 492.624 1139.29 551.609 1139.29 551.609L1147.22 551.957C1147.22 551.957 1163.81 499.606 1160.08 456.447C1172.02 409.015 1162.56 355.719 1162.56 355.719L1138.84 351.483Z" fill="#EEC1BB"/>
<path d="M1126.97 568.319C1128.14 567.613 1129.44 567.129 1130.78 566.89C1130.78 566.89 1135.17 563.623 1138.66 552.392L1143.88 551.796C1144.77 551.712 1145.66 551.906 1146.44 552.351C1147.22 552.795 1147.84 553.47 1148.21 554.28C1148.33 554.503 1148.4 554.742 1148.44 554.989C1148.52 556.259 1148.52 557.532 1148.44 558.803C1148.12 563.041 1147.54 567.256 1146.71 571.425L1145.8 571.3L1146.56 563.325C1146.81 560.616 1144.31 563.474 1143.31 566.294C1142.3 569.114 1140.61 572.008 1134.7 571.263C1127.82 570.431 1125 569.723 1126.97 568.319Z" fill="#263238"/>
<path d="M1148.38 554.343C1149.08 551.709 1149.85 547.038 1149.85 547.038L1138.49 546.702C1138.49 546.702 1139.08 552.206 1137.41 556.045C1143.25 555.361 1148.38 554.343 1148.38 554.343Z" fill="#263238"/>
<path d="M1121.99 340.65L1107.22 442.794C1107.22 442.794 1155.32 450.248 1174.58 445.887C1174.58 445.887 1179.31 386.914 1159.21 344.017L1121.99 340.65Z" fill="#263238"/>
<path d="M1077.53 304.535L1064.67 291.839C1064.67 291.839 1064.23 288.435 1062.98 287.491C1061.72 286.546 1052.93 283.341 1051.8 284.049C1050.67 284.757 1049.21 291.888 1050.73 293.193C1052.25 294.497 1060.26 296.162 1061.08 296.025L1075.03 312.561L1077.53 304.535Z" fill="#EEC1BB"/>
<path d="M1123.54 281.391C1118 284.335 1098.32 311.84 1095.43 313.194C1092.53 314.548 1070.38 296.597 1070.38 296.597L1066.66 302.97C1066.66 302.97 1084.82 328.711 1095.09 327.469C1105.37 326.226 1125.03 304.486 1125.03 304.486L1123.54 281.391Z" fill="#407BFF"/>
<path opacity="0.1" d="M1123.54 281.391C1118 284.335 1098.32 311.84 1095.43 313.194C1092.53 314.548 1070.38 296.597 1070.38 296.597L1066.66 302.97C1066.66 302.97 1084.82 328.711 1095.09 327.469C1105.37 326.226 1125.03 304.486 1125.03 304.486L1123.54 281.391Z" fill="white"/>
<path d="M1071.6 297.28L1070.06 295.827L1066.02 302.659L1067.48 305.455L1071.6 297.28Z" fill="#407BFF"/>
<path opacity="0.2" d="M1117.13 312.449C1121.73 308.064 1125.03 304.424 1125.03 304.424L1124.69 298.957L1123 293.653C1120.61 296.106 1118.84 299.086 1117.82 302.351C1116.8 305.616 1116.57 309.076 1117.13 312.449Z" fill="black"/>
<path d="M1121.68 339.606C1120.13 312.275 1120.82 297.218 1121.53 289.702C1122.31 281.689 1123.54 281.391 1123.54 281.391C1123.54 281.391 1132.24 280.546 1139.78 280.608C1145.61 280.806 1151.43 281.42 1157.17 282.447C1162.64 283.354 1168.04 284.654 1173.32 286.335C1172.44 288.82 1171.65 291.305 1170.9 293.491C1169.92 296.46 1169.04 299.206 1168.23 301.777C1166.74 306.573 1165.57 310.722 1164.65 314.437C1162.28 323.79 1160.89 333.367 1160.51 343.01C1160.51 343.01 1170.07 367.981 1171.93 386.305L1140.25 389.722L1135.9 371.397L1131.56 390.343L1113.85 384.131L1121.68 339.606Z" fill="#00FF69"/>
<path opacity="0.1" d="M1121.68 339.606C1120.13 312.275 1120.82 297.218 1121.53 289.702C1122.31 281.689 1123.54 281.391 1123.54 281.391C1123.54 281.391 1132.24 280.546 1139.78 280.608C1145.61 280.806 1151.43 281.42 1157.17 282.447C1162.64 283.354 1168.04 284.654 1173.32 286.335C1172.44 288.82 1171.65 291.305 1170.9 293.491C1169.92 296.46 1169.04 299.206 1168.23 301.777C1166.74 306.573 1165.57 310.722 1164.65 314.437C1162.28 323.79 1160.89 333.367 1160.51 343.01C1160.51 343.01 1170.07 367.981 1171.93 386.305L1140.25 389.722L1135.9 371.397L1131.56 390.343L1113.85 384.131L1121.68 339.606Z" fill="white"/>
<path opacity="0.2" d="M1163.11 321.133C1163.53 319.046 1164.03 316.822 1164.64 314.437C1165.02 312.921 1165.45 311.331 1165.88 309.641C1164.64 305.405 1163.4 308.722 1163.4 308.722C1162.63 312.816 1162.53 317.008 1163.11 321.133Z" fill="black"/>
<path d="M1140.21 282.273C1140.6 282.079 1140.99 281.909 1141.39 281.763C1142.29 281.055 1143.38 279.353 1143.33 275.216C1143.29 273.576 1143.14 271.941 1142.87 270.322L1154.39 268.172C1154.39 268.172 1150.46 275.925 1153.73 281.689C1154.86 282.186 1155.53 282.931 1155.41 283.838C1154.55 290.485 1140.24 296.92 1140.24 296.92C1140.24 296.92 1133.27 286.087 1140.21 282.273Z" fill="#EEC1BB"/>
<path opacity="0.2" d="M1142.87 270.322C1143.13 271.929 1143.28 273.552 1143.32 275.179C1151.1 275.179 1154.39 268.172 1154.39 268.172L1142.87 270.322Z" fill="black"/>
<path d="M1149.25 238.158C1139.23 237.611 1135.72 242.792 1134.43 253.066C1132.8 265.911 1135.16 275.229 1147.83 273.167C1165.04 270.322 1165.88 239.065 1149.25 238.158Z" fill="#EEC1BB"/>
<path d="M1140.92 252.929C1140.04 254.38 1138.98 255.719 1137.78 256.917C1138.05 257.342 1138.44 257.683 1138.9 257.902C1139.35 258.121 1139.86 258.21 1140.36 258.159L1140.92 252.929Z" fill="#D4827D"/>
<path d="M1147.1 252.382C1147.1 253.202 1147.42 253.91 1147.97 253.948C1148.51 253.985 1149.01 253.364 1149.08 252.544C1149.16 251.724 1148.75 251.016 1148.2 250.979C1147.66 250.941 1147.16 251.562 1147.1 252.382Z" fill="#263238"/>
<path d="M1148.43 251.028L1146.7 250.196C1146.7 250.196 1147.47 251.761 1148.43 251.028Z" fill="#263238"/>
<path d="M1136.9 251.413C1136.84 252.233 1137.22 252.929 1137.77 252.979C1138.31 253.028 1138.82 252.395 1138.88 251.562C1138.95 250.73 1138.55 250.047 1138 249.997C1137.46 249.947 1136.96 250.593 1136.9 251.413Z" fill="#263238"/>
<path d="M1138.23 250.059L1136.5 249.214C1136.5 249.214 1137.27 250.792 1138.23 250.059Z" fill="#263238"/>
<path d="M1147.58 245.475C1148.38 245.421 1149.17 245.552 1149.91 245.855C1150.65 246.159 1151.3 246.628 1151.83 247.227" stroke="#263238" stroke-width="0.686238" stroke-linecap="round" stroke-linejoin="round"/>
<path d="M1140.39 244.655C1139.71 244.443 1139 244.386 1138.3 244.489C1137.6 244.592 1136.93 244.853 1136.35 245.251" stroke="#263238" stroke-width="0.686238" stroke-linecap="round" stroke-linejoin="round"/>
<path d="M1159.27 255.637C1159.27 255.637 1155.04 247.152 1156.09 240.841C1156.09 240.841 1136.7 231.648 1134.61 251.724C1134.61 251.724 1133.65 233.735 1150.89 234.331C1168.12 234.928 1166.66 260.06 1157.37 267.079C1157.37 267.029 1161.88 260.942 1159.27 255.637Z" fill="#263238"/>
<path d="M1157.52 257.662C1157.69 256.51 1158.3 255.47 1159.23 254.771C1160.17 254.073 1161.34 253.772 1162.49 253.935C1165.57 254.445 1166.7 260.905 1158.9 262.01C1157.78 262.135 1157.2 261.017 1157.52 257.662Z" fill="#EEC1BB"/>
<path d="M1148.18 260.47C1147.42 261.218 1146.52 261.808 1145.53 262.207C1144.55 262.606 1143.49 262.805 1142.43 262.793" stroke="#263238" stroke-width="0.686238" stroke-linecap="round" stroke-linejoin="round"/>
<path d="M1156.09 240.841C1156.09 240.841 1134.45 235.213 1132.64 255.501" stroke="#263238" stroke-width="0.686238" stroke-linecap="round" stroke-linejoin="round"/>
<path d="M1136.79 287.205C1136.79 287.205 1135.13 303.653 1137.84 318.623C1137.84 318.623 1144.23 295.491 1153.2 287.627L1142.89 289.106L1136.79 287.205Z" fill="#407BFF"/>
<path opacity="0.5" d="M1136.79 287.205C1136.79 287.205 1135.13 303.653 1137.84 318.623C1137.84 318.623 1144.23 295.491 1153.2 287.627L1142.89 289.106L1136.79 287.205Z" fill="white"/>
<path d="M1153.35 279.888L1142.87 287.627V279.403C1142.87 279.403 1134.41 282.472 1135.01 291.826L1141.95 288.634V291.826L1143.58 288.745L1149.07 295.019C1149.07 295.019 1155.79 287.18 1156.53 284.82C1157.26 282.459 1153.35 279.888 1153.35 279.888Z" fill="#407BFF"/>
<path opacity="0.7" d="M1153.35 279.888L1142.87 287.627V279.403C1142.87 279.403 1134.41 282.472 1135.01 291.826L1141.95 288.634V291.826L1143.58 288.745L1149.07 295.019C1149.07 295.019 1155.79 287.18 1156.53 284.82C1157.26 282.459 1153.35 279.888 1153.35 279.888Z" fill="white"/>
<path d="M1164.28 352.464L1154.66 306.585C1154.56 306.105 1154.3 305.674 1153.92 305.364C1153.54 305.054 1153.07 304.884 1152.58 304.883H1123C1122.78 304.883 1122.56 304.931 1122.37 305.024C1122.17 305.116 1121.99 305.25 1121.85 305.417C1121.71 305.584 1121.61 305.78 1121.56 305.99C1121.5 306.2 1121.49 306.421 1121.53 306.635L1129.54 351.557C1129.63 352.042 1129.87 352.482 1130.25 352.804C1130.62 353.126 1131.09 353.309 1131.58 353.322L1162.85 354.253C1163.07 354.249 1163.28 354.196 1163.48 354.099C1163.67 354.002 1163.85 353.864 1163.98 353.693C1164.12 353.522 1164.22 353.324 1164.27 353.112C1164.32 352.899 1164.32 352.678 1164.28 352.464Z" fill="#263238"/>
<path opacity="0.1" d="M1164.28 352.464L1154.66 306.585C1154.56 306.105 1154.3 305.674 1153.92 305.364C1153.54 305.054 1153.07 304.884 1152.58 304.883H1123C1122.78 304.883 1122.56 304.931 1122.37 305.024C1122.17 305.116 1121.99 305.25 1121.85 305.417C1121.71 305.584 1121.61 305.78 1121.56 305.99C1121.5 306.2 1121.49 306.421 1121.53 306.635L1129.54 351.557C1129.63 352.042 1129.87 352.482 1130.25 352.804C1130.62 353.126 1131.09 353.309 1131.58 353.322L1162.85 354.253C1163.07 354.249 1163.28 354.196 1163.48 354.099C1163.67 354.002 1163.85 353.864 1163.98 353.693C1164.12 353.522 1164.22 353.324 1164.27 353.112C1164.32 352.899 1164.32 352.678 1164.28 352.464Z" fill="white"/>
<path d="M1177.06 337.606L1161.77 327.966C1161.77 327.966 1160.6 324.748 1159.18 324.09C1157.77 323.431 1148.48 322.201 1147.57 323.133C1146.66 324.065 1146.74 331.332 1148.5 332.289C1150.26 333.246 1158.44 333.134 1159.21 332.823L1176.34 345.942L1177.06 337.606Z" fill="#EEC1BB"/>
<path d="M1173.32 286.335C1173.32 286.335 1163.38 300.846 1164.79 313.269L1178.04 335.208L1169.14 330.661L1165.1 338.265C1165.1 338.265 1175.35 354.054 1188.39 350.328C1201.44 346.601 1173.32 286.335 1173.32 286.335Z" fill="#407BFF"/>
<path opacity="0.1" d="M1173.32 286.335C1173.32 286.335 1163.38 300.846 1164.79 313.269L1178.04 335.208L1169.14 330.661L1165.1 338.265C1165.1 338.265 1175.35 354.054 1188.39 350.328C1201.44 346.601 1173.32 286.335 1173.32 286.335Z" fill="white"/>
<path d="M1170.07 330.239L1165 339.668L1163.86 336.973L1167.89 329.307L1170.07 330.239Z" fill="#407BFF"/>
<path d="M1151.57 304.883C1150.4 304.883 1150.4 335.444 1150.4 335.444L1123.69 334.674C1123.69 334.674 1120.68 308.834 1123.69 304.858L1151.57 304.883Z" fill="white"/>
<path opacity="0.1" d="M1151.57 304.883C1150.4 304.883 1150.4 335.444 1150.4 335.444L1123.69 334.674C1123.69 334.674 1120.68 308.834 1123.69 304.858L1151.57 304.883Z" fill="black"/>
<path d="M1041.25 280.67L1066.51 291.292C1066.64 291.352 1066.77 291.437 1066.87 291.544C1066.97 291.651 1067.05 291.778 1067.11 291.916C1067.16 292.055 1067.19 292.203 1067.19 292.351C1067.18 292.5 1067.15 292.647 1067.09 292.783C1066.97 293.051 1066.75 293.262 1066.48 293.369C1066.21 293.476 1065.91 293.471 1065.64 293.354L1040.22 282.583L1039.98 282.459L1037.03 280.26L1040.91 280.596C1041.03 280.603 1041.14 280.628 1041.25 280.67Z" fill="#263238"/>
<path d="M957.455 333.022L932.92 335.208L923.08 329.655C923.08 329.655 891.525 312.076 883.326 306.523C880.841 304.821 878.518 301.119 876.518 296.771C874.839 293.042 873.396 289.213 872.195 285.304C871.635 283.552 871.139 281.875 870.716 280.335C869.772 277.018 869.188 274.533 869.027 273.862C869.034 273.809 869.034 273.754 869.027 273.701H869.089L876.866 271.216L883.363 269.154C883.363 269.154 883.661 270.694 884.171 273.042L884.618 275.117C884.754 275.713 884.891 276.359 885.04 277.005C886.68 284.236 889.202 294.1 891.028 295.715C893.973 298.311 930.994 323.543 932.311 324.201C933.628 324.86 945.417 324.201 945.417 324.201L957.455 333.022Z" fill="#E4897B"/>
<path d="M868.828 238.866C880.133 238.692 887.326 273.726 887.326 273.726L872.418 281.18C868.183 273.847 865.975 265.521 866.02 257.054C866.368 243.612 868.828 238.866 868.828 238.866Z" fill="#407BFF"/>
<path opacity="0.5" d="M868.828 238.866C880.133 238.692 887.326 273.726 887.326 273.726L872.418 281.18C868.183 273.847 865.975 265.521 866.02 257.054C866.368 243.612 868.828 238.866 868.828 238.866Z" fill="white"/>
<path d="M888.978 274.409L884.953 277.018L879.698 280.422L872.145 285.304L870.791 286.186L869.151 281.204L870.666 280.384L871.66 279.838L878.568 276.074L884.084 273.055L886.842 271.552L887.326 271.291L888.978 274.409Z" fill="#407BFF"/>
<path opacity="0.2" d="M880.369 286.186C880.392 290.07 879.006 293.831 876.468 296.771C874.79 293.042 873.346 289.213 872.145 285.304L870.791 286.186L869.151 281.217L870.666 280.397C869.722 277.08 869.138 274.595 868.977 273.924V273.726L870.766 260.06C873.113 263.588 875.118 267.332 876.754 271.241C877.4 272.769 877.996 274.396 878.543 276.086C878.733 276.666 878.907 277.262 879.064 277.875C879.301 278.72 879.499 279.577 879.673 280.434C880.077 282.327 880.31 284.252 880.369 286.186Z" fill="black"/>
<path d="M867.138 560.231L877.537 561.337L879.487 538.913L869.089 537.807L867.138 560.231Z" fill="#E4897B"/>
<path d="M815.271 559.473H825.334L826.166 536.142H816.091L815.271 559.473Z" fill="#E4897B"/>
<path d="M826.738 558.306H814.501C814.301 558.309 814.107 558.379 813.952 558.505C813.797 558.632 813.688 558.806 813.644 559.001L811.656 567.971C811.614 568.162 811.61 568.359 811.645 568.552C811.68 568.744 811.753 568.927 811.859 569.091C811.965 569.256 812.103 569.397 812.265 569.507C812.426 569.618 812.607 569.695 812.799 569.735C812.906 569.753 813.015 569.753 813.122 569.735C817.085 569.735 819.967 569.437 824.936 569.437C828.005 569.437 837.248 569.747 841.472 569.747C845.696 569.747 846.255 565.573 844.515 565.188C836.751 563.499 830.85 561.151 828.365 558.976C827.923 558.562 827.344 558.323 826.738 558.306Z" fill="#263238"/>
<path d="M827.433 559.709C827.385 559.697 827.341 559.67 827.307 559.633C827.274 559.595 827.253 559.548 827.247 559.498C827.241 559.454 827.249 559.409 827.269 559.369C827.289 559.329 827.32 559.296 827.359 559.275C827.719 559.039 830.974 557.038 832.092 557.622C832.219 557.678 832.326 557.77 832.4 557.888C832.473 558.005 832.509 558.142 832.502 558.281C832.527 558.513 832.495 558.747 832.408 558.964C832.321 559.18 832.183 559.372 832.005 559.523C831.438 559.915 830.754 560.099 830.067 560.045C829.179 560.033 828.296 559.921 827.433 559.709ZM828.117 559.374C829.293 559.773 830.578 559.707 831.707 559.188C831.825 559.08 831.916 558.947 831.972 558.798C832.028 558.649 832.048 558.489 832.03 558.33C832.03 558.144 831.943 558.057 831.869 558.057C831.778 558.006 831.674 557.984 831.57 557.995C830.341 558.228 829.168 558.696 828.117 559.374Z" fill="#407BFF"/>
<path d="M827.322 559.784C827.286 559.759 827.257 559.725 827.237 559.686C827.218 559.647 827.208 559.604 827.21 559.56C827.21 559.424 827.471 556.529 828.638 555.585C828.773 555.463 828.933 555.371 829.107 555.318C829.281 555.264 829.465 555.249 829.645 555.274C829.825 555.273 830 555.334 830.141 555.448C830.281 555.561 830.378 555.719 830.415 555.895C830.614 556.964 828.601 559.175 827.57 559.747H827.458C827.417 559.772 827.37 559.785 827.322 559.784ZM828.937 555.858C828.214 556.761 827.781 557.861 827.694 559.014C828.738 558.231 830.017 556.529 829.893 555.895C829.893 555.833 829.893 555.659 829.545 555.659H829.434C829.267 555.672 829.107 555.732 828.974 555.833L828.937 555.858Z" fill="#407BFF"/>
<path d="M878.63 557.995H866.393C866.194 557.995 866.001 558.063 865.845 558.187C865.69 558.311 865.58 558.484 865.536 558.678L863.548 567.648C863.467 568.033 863.541 568.435 863.756 568.766C863.97 569.096 864.306 569.329 864.691 569.412H865.026C868.977 569.337 871.859 569.101 876.841 569.101C879.897 569.101 889.14 569.424 893.364 569.424C897.588 569.424 898.147 565.238 896.42 564.853C888.655 563.163 882.754 560.827 880.27 558.641C879.82 558.232 879.237 558.003 878.63 557.995Z" fill="#263238"/>
<path d="M879.325 559.386C879.277 559.374 879.233 559.347 879.199 559.31C879.166 559.272 879.145 559.225 879.139 559.175C879.133 559.129 879.141 559.083 879.164 559.042C879.186 559.002 879.221 558.97 879.263 558.952C879.624 558.715 882.879 556.715 883.984 557.299C884.109 557.357 884.215 557.45 884.287 557.567C884.36 557.684 884.397 557.82 884.394 557.958C884.42 558.19 884.388 558.424 884.302 558.641C884.215 558.858 884.076 559.05 883.897 559.2C883.343 559.603 882.669 559.808 881.984 559.784C881.086 559.753 880.194 559.62 879.325 559.386ZM880.009 559.051C881.185 559.443 882.466 559.381 883.599 558.877C883.718 558.77 883.809 558.637 883.865 558.488C883.921 558.339 883.941 558.178 883.922 558.02C883.922 557.821 883.835 557.734 883.773 557.734C883.678 557.682 883.57 557.661 883.462 557.672C882.235 557.91 881.063 558.378 880.009 559.051Z" fill="#407BFF"/>
<path d="M879.263 559.436C879.227 559.414 879.197 559.383 879.175 559.346C879.153 559.309 879.141 559.268 879.139 559.225C879.139 559.076 879.4 556.181 880.568 555.237C880.703 555.115 880.862 555.024 881.036 554.97C881.21 554.916 881.394 554.901 881.574 554.926C881.756 554.926 881.933 554.989 882.073 555.105C882.214 555.22 882.31 555.381 882.344 555.56C882.555 556.616 880.543 558.84 879.499 559.399H879.388C879.35 559.423 879.307 559.436 879.263 559.436ZM880.878 555.51C880.15 556.41 879.717 557.511 879.636 558.666C880.667 557.883 881.947 556.181 881.823 555.56C881.823 555.486 881.823 555.312 881.475 555.312H881.363C881.184 555.324 881.014 555.394 880.878 555.51Z" fill="#407BFF"/>
<path opacity="0.2" d="M869.089 537.807L879.487 538.913L878.468 550.479L868.07 549.373L869.089 537.807Z" fill="black"/>
<path opacity="0.2" d="M816.091 536.155H826.166L825.731 548.193H815.656L816.091 536.155Z" fill="black"/>
<path d="M820.24 331.469H873.66C878.742 359.235 894.656 457.466 883.239 544.988L865.138 542.739C865.138 542.739 866.815 426.544 850.839 383.597C849 406.58 846.814 431.042 844.925 444.061C840.316 476.088 830.365 546.118 830.365 546.118H811.942C811.942 546.118 815.669 479.107 817.445 447.614C819.346 413.425 820.178 338.488 820.24 331.469Z" fill="#407BFF"/>
<path opacity="0.2" d="M850.926 383.597C853.559 391.128 855.558 398.865 856.901 406.729C858.392 386.268 852.417 364.577 852.417 364.577L850.926 383.597Z" fill="black"/>
<path d="M885.363 549.199L862.964 545.87L863.647 539.671L886.941 542.727L885.363 549.199Z" fill="#407BFF"/>
<path opacity="0.6" d="M885.363 549.199L862.964 545.87L863.647 539.671L886.941 542.727L885.363 549.199Z" fill="white"/>
<path d="M832.577 546.255H810.848V539.758L833.397 539.335L832.577 546.255Z" fill="#407BFF"/>
<path opacity="0.6" d="M832.577 546.255H810.848V539.758L833.397 539.335L832.577 546.255Z" fill="white"/>
<path d="M820.141 340.762L820.091 333.022L874.58 329.655L874.965 337.159L820.141 340.762Z" fill="#263238"/>
<path d="M833.931 331.059H831.471V342.401H833.931V331.059Z" fill="#407BFF"/>
<path d="M871.586 327.292L869.133 327.471L869.957 338.783L872.411 338.604L871.586 327.292Z" fill="#407BFF"/>
<path d="M874.53 329.655L820.091 333.68C820.091 328.91 819.967 323.593 819.607 317.977C818.936 307.604 817.656 296.249 816.228 285.602C813.196 262.979 809.482 243.562 809.482 243.562C834.825 237.164 868.828 238.829 868.828 238.829C877.661 271.924 874.53 329.655 874.53 329.655Z" fill="#00FF69"/>
<path opacity="0.6" d="M874.53 329.655L820.091 333.68C820.091 328.91 819.967 323.593 819.607 317.977C818.936 307.604 817.656 296.249 816.228 285.602C813.196 262.979 809.482 243.562 809.482 243.562C834.825 237.164 868.828 238.829 868.828 238.829C877.661 271.924 874.53 329.655 874.53 329.655Z" fill="white"/>
<path d="M828.825 240.17C833.794 244.63 845.758 242.99 845.758 242.99C845.758 242.99 853.212 240.928 851.684 238.58C847.261 237.86 845.124 235.797 844.23 233.151C843.739 231.518 843.587 229.802 843.782 228.107C843.851 227.161 843.975 226.219 844.155 225.287L829.247 214.28C831.247 221.548 833.633 234.903 828.825 240.17Z" fill="#E4897B"/>
<path opacity="0.2" d="M832.738 221.275C833.322 230.194 840.652 232.654 844.242 233.151C843.751 231.518 843.599 229.802 843.795 228.107L832.738 221.275Z" fill="black"/>
<path d="M858.38 193.086C861.995 196.515 860.492 206.963 853.125 212.305C845.758 217.647 845.758 191.807 845.758 191.807C845.758 191.807 856.081 190.9 858.38 193.086Z" fill="#263238"/>
<path d="M831.732 223.337C833.277 225.623 835.529 227.34 838.144 228.222C840.759 229.104 843.591 229.103 846.205 228.219C849.605 227.142 852.466 224.81 854.206 221.697C854.451 221.265 854.675 220.822 854.876 220.368C858.504 211.932 859.622 197.024 850.69 191.484C847.623 189.562 843.919 188.935 840.39 189.741C836.862 190.546 833.797 192.719 831.869 195.782C830.728 197.6 830.026 199.659 829.819 201.795C828.725 211.684 827.607 217.473 831.732 223.337Z" fill="#E4897B"/>
<path d="M844.279 207.075C844.093 207.857 844.453 208.59 844.988 208.677C845.522 208.764 846.044 208.18 846.23 207.435C846.416 206.69 846.044 205.919 845.534 205.832C845.025 205.745 844.428 206.267 844.279 207.075Z" fill="#263238"/>
<path d="M853.336 208.615C853.15 209.398 853.522 210.143 854.032 210.23C854.541 210.317 855.1 209.733 855.274 208.988C855.448 208.243 855.088 207.46 854.566 207.373C854.044 207.286 853.473 207.857 853.336 208.615Z" fill="#263238"/>
<path d="M850.392 208.516C850.93 211.111 851.824 213.62 853.05 215.97C852.433 216.271 851.756 216.433 851.069 216.444C850.382 216.454 849.701 216.314 849.075 216.032L850.392 208.516Z" fill="#DE5753"/>
<path d="M841.969 203.658C842.053 203.683 842.143 203.687 842.229 203.67C842.316 203.652 842.397 203.614 842.466 203.559C842.89 203.136 843.408 202.818 843.978 202.633C844.548 202.447 845.153 202.398 845.745 202.491C845.806 202.505 845.868 202.508 845.93 202.499C845.991 202.489 846.05 202.468 846.103 202.435C846.156 202.403 846.203 202.361 846.239 202.31C846.276 202.26 846.302 202.203 846.317 202.143C846.343 202.021 846.322 201.894 846.257 201.787C846.193 201.681 846.089 201.603 845.969 201.571C845.226 201.434 844.462 201.475 843.739 201.691C843.015 201.907 842.353 202.292 841.807 202.814C841.721 202.904 841.672 203.024 841.672 203.149C841.672 203.274 841.721 203.394 841.807 203.484C841.849 203.552 841.904 203.612 841.969 203.658Z" fill="#263238"/>
<path d="M847.062 220.007C845.887 219.988 844.734 219.685 843.702 219.122C842.669 218.559 841.789 217.755 841.136 216.777C841.118 216.749 841.107 216.717 841.101 216.684C841.096 216.651 841.098 216.617 841.106 216.585C841.114 216.552 841.128 216.522 841.149 216.495C841.169 216.468 841.194 216.446 841.223 216.429C841.278 216.396 841.343 216.386 841.406 216.399C841.468 216.413 841.523 216.451 841.559 216.504C842.184 217.394 843.008 218.125 843.966 218.641C844.923 219.156 845.988 219.441 847.075 219.473C847.138 219.473 847.2 219.498 847.246 219.541C847.292 219.585 847.32 219.645 847.323 219.709C847.32 219.771 847.294 219.829 847.251 219.873C847.207 219.916 847.149 219.942 847.087 219.945L847.062 220.007Z" fill="#263238"/>
<path d="M857.759 206.155C857.841 206.204 857.936 206.23 858.032 206.23C858.151 206.193 858.252 206.112 858.314 206.003C858.376 205.895 858.395 205.768 858.367 205.646C858.175 204.913 857.807 204.237 857.297 203.677C856.786 203.117 856.148 202.688 855.436 202.428C855.317 202.393 855.189 202.406 855.08 202.464C854.971 202.522 854.889 202.621 854.852 202.739C854.816 202.859 854.829 202.989 854.887 203.1C854.945 203.211 855.043 203.295 855.162 203.335C855.718 203.558 856.215 203.907 856.612 204.356C857.009 204.805 857.295 205.34 857.448 205.919C857.48 205.979 857.524 206.03 857.578 206.071C857.631 206.112 857.693 206.14 857.759 206.155Z" fill="#263238"/>
<path d="M839.136 190.738V195.161C838.355 195.424 837.701 195.971 837.305 196.694C836.91 197.417 836.8 198.262 836.999 199.062C837.956 202.913 835.186 208.354 832.092 210.243C832.092 210.243 832.192 208.64 830.85 208.851C829.508 209.062 828.825 217.398 830.962 221.66C830.962 221.66 827.433 217.61 826.266 208.64C825.172 200.341 825.744 193.608 827.769 190.701L839.136 190.738Z" fill="#263238"/>
<path d="M824.154 209.1C824.863 211.51 826.498 213.542 828.701 214.752C831.632 216.33 833.831 213.87 833.67 210.727C833.471 207.92 831.732 203.646 828.477 203.397C825.222 203.149 823.309 206.131 824.154 209.1Z" fill="#E4897B"/>
<path d="M825.769 198.267C825.769 198.267 822.7 190.9 830.738 185.496C838.776 180.091 857.846 186.39 859.187 190.775C860.529 195.161 846.106 203.124 825.769 198.267Z" fill="#263238"/>
<path d="M830.701 235.586L842.863 242.245L844.528 233.151L853.05 238.692V250.308L844.031 244.928L837.695 254.42L825.185 240.68L830.701 235.586Z" fill="#407BFF"/>
<path d="M858.325 329.971L848.749 330.502C847.954 330.546 847.346 331.226 847.39 332.02L847.748 338.495C847.792 339.29 848.472 339.898 849.267 339.854L858.843 339.324C859.638 339.28 860.246 338.6 860.202 337.806L859.844 331.33C859.8 330.536 859.12 329.927 858.325 329.971Z" fill="white"/>
<path opacity="0.5" d="M830.701 235.586L842.863 242.245L844.528 233.151L853.05 238.692V250.308L844.031 244.928L837.695 254.42L825.185 240.68L830.701 235.586Z" fill="white"/>
<path opacity="0.2" d="M839.136 315.617C835.521 321.058 823.955 321.021 819.607 318.015C818.936 307.641 817.656 296.286 816.228 285.64L839.136 315.617Z" fill="black"/>
<path d="M820.091 273.726C820.091 273.726 822.663 290.472 825.185 293.74C827.707 297.007 879.847 325.518 879.847 325.518L897.873 324.214L906.16 333.718C906.16 333.718 882.146 337.445 879.524 336.724C877.925 336.281 876.372 335.682 874.89 334.935C874.89 334.935 820.228 313.406 815.631 308.486C811.035 303.566 805.805 278.31 805.805 278.31L820.091 273.726Z" fill="#E4897B"/>
<path d="M809.482 243.599C819.023 241.611 823.955 281.204 823.955 281.204L804.438 286.174C804.438 286.174 797.742 246.059 809.482 243.599Z" fill="#407BFF"/>
<path opacity="0.5" d="M809.482 243.599C819.023 241.611 823.955 281.204 823.955 281.204L804.438 286.174C804.438 286.174 797.742 246.059 809.482 243.599Z" fill="white"/>
<path d="M803.295 285.23L825.185 279.987V283.751L804.276 289.814L803.295 285.23Z" fill="#407BFF"/>
<path d="M878.257 532.453V362.154C878.258 354.784 875.999 347.591 871.784 341.544L865.834 333.022H971.556L977.507 341.544C981.721 347.591 983.981 354.784 983.979 362.154V530.838" stroke="#263238" stroke-width="6" stroke-linecap="round" stroke-linejoin="round"/>
<path d="M1102.93 569.785C1108.98 569.785 1113.88 564.884 1113.88 558.84C1113.88 552.795 1108.98 547.895 1102.93 547.895C1096.89 547.895 1091.99 552.795 1091.99 558.84C1091.99 564.884 1096.89 569.785 1102.93 569.785Z" fill="#263238"/>
<path opacity="0.4" d="M1108.41 558.84C1108.41 557.756 1108.09 556.695 1107.49 555.793C1106.89 554.89 1106.04 554.186 1105.04 553.769C1104.04 553.353 1102.93 553.242 1101.87 553.452C1100.81 553.662 1099.83 554.183 1099.06 554.949C1098.29 555.715 1097.77 556.691 1097.56 557.754C1097.35 558.817 1097.45 559.919 1097.87 560.921C1098.28 561.923 1098.99 562.779 1099.89 563.382C1100.79 563.984 1101.85 564.306 1102.93 564.306C1103.65 564.308 1104.36 564.167 1105.03 563.894C1105.69 563.62 1106.3 563.217 1106.81 562.709C1107.31 562.202 1107.72 561.598 1107.99 560.934C1108.27 560.27 1108.41 559.559 1108.41 558.84Z" fill="white"/>
<path d="M1101.62 561.275C1100.76 561.274 1099.93 561.011 1099.23 560.523C1098.53 560.034 1098 559.343 1097.7 558.542L1091.25 540.876H1105.78V557.113C1105.78 558.217 1105.34 559.275 1104.56 560.056C1103.78 560.836 1102.72 561.275 1101.62 561.275Z" fill="#263238"/>
<path opacity="0.2" d="M1101.62 561.275C1100.76 561.274 1099.93 561.011 1099.23 560.523C1098.53 560.034 1098 559.343 1097.7 558.542L1091.25 540.876H1105.78V557.113C1105.78 558.217 1105.34 559.275 1104.56 560.056C1103.78 560.836 1102.72 561.275 1101.62 561.275Z" fill="white"/>
<path d="M981.184 569.785C987.229 569.785 992.129 564.884 992.129 558.84C992.129 552.795 987.229 547.895 981.184 547.895C975.139 547.895 970.239 552.795 970.239 558.84C970.239 564.884 975.139 569.785 981.184 569.785Z" fill="#263238"/>
<path opacity="0.4" d="M986.663 558.84C986.665 557.756 986.346 556.695 985.745 555.793C985.145 554.89 984.29 554.186 983.289 553.769C982.288 553.353 981.186 553.242 980.123 553.452C979.059 553.662 978.082 554.183 977.314 554.949C976.547 555.715 976.024 556.691 975.811 557.754C975.599 558.817 975.707 559.919 976.121 560.921C976.535 561.923 977.238 562.779 978.139 563.382C979.04 563.984 980.1 564.306 981.184 564.306C981.903 564.308 982.615 564.167 983.28 563.894C983.944 563.62 984.548 563.217 985.057 562.709C985.566 562.202 985.97 561.598 986.245 560.934C986.521 560.27 986.663 559.559 986.663 558.84Z" fill="white"/>
<path d="M979.867 561.275C979.014 561.274 978.181 561.011 977.481 560.523C976.781 560.034 976.248 559.343 975.954 558.542L969.506 540.876H984.029V557.113C984.029 558.217 983.59 559.275 982.81 560.056C982.029 560.836 980.971 561.275 979.867 561.275Z" fill="#263238"/>
<path opacity="0.2" d="M979.867 561.275C979.014 561.274 978.181 561.011 977.481 560.523C976.781 560.034 976.248 559.343 975.954 558.542L969.506 540.876H984.029V557.113C984.029 558.217 983.59 559.275 982.81 560.056C982.029 560.836 980.971 561.275 979.867 561.275Z" fill="white"/>
<path d="M1121.75 528.142V538.478C1121.75 539.404 1121.39 540.292 1120.73 540.947C1120.08 541.601 1119.19 541.969 1118.26 541.969H873.611C872.685 541.969 871.797 541.601 871.142 540.947C870.488 540.292 870.12 539.404 870.12 538.478V528.142H1121.75Z" fill="#263238"/>
<path opacity="0.4" d="M1121.75 528.142V538.478C1121.75 539.404 1121.39 540.292 1120.73 540.947C1120.08 541.601 1119.19 541.969 1118.26 541.969H873.611C872.685 541.969 871.797 541.601 871.142 540.947C870.488 540.292 870.12 539.404 870.12 538.478V528.142H1121.75Z" fill="white"/>
<path opacity="0.2" d="M1034.79 528.142V538.478C1034.79 539.404 1034.42 540.292 1033.77 540.947C1033.11 541.601 1032.23 541.969 1031.3 541.969H873.611C872.685 541.969 871.797 541.601 871.142 540.947C870.488 540.292 870.12 539.404 870.12 538.478V528.142H1034.79Z" fill="white"/>
<path d="M1014.73 569.785C1020.77 569.785 1025.67 564.884 1025.67 558.84C1025.67 552.795 1020.77 547.895 1014.73 547.895C1008.68 547.895 1003.78 552.795 1003.78 558.84C1003.78 564.884 1008.68 569.785 1014.73 569.785Z" fill="#263238"/>
<path opacity="0.6" d="M1020.21 558.84C1020.21 557.756 1019.89 556.695 1019.29 555.793C1018.69 554.89 1017.83 554.186 1016.83 553.769C1015.83 553.353 1014.73 553.242 1013.67 553.452C1012.6 553.662 1011.62 554.183 1010.86 554.949C1010.09 555.715 1009.57 556.691 1009.35 557.754C1009.14 558.817 1009.25 559.919 1009.66 560.921C1010.08 561.923 1010.78 562.779 1011.68 563.382C1012.58 563.984 1013.64 564.306 1014.73 564.306C1015.45 564.308 1016.16 564.167 1016.82 563.894C1017.49 563.62 1018.09 563.217 1018.6 562.709C1019.11 562.202 1019.51 561.598 1019.79 560.934C1020.06 560.27 1020.21 559.559 1020.21 558.84Z" fill="white"/>
<path d="M1013.41 561.275C1012.56 561.274 1011.72 561.011 1011.02 560.523C1010.32 560.034 1009.79 559.343 1009.5 558.542L1003.05 540.876H1017.57V557.113C1017.57 558.217 1017.13 559.275 1016.35 560.056C1015.57 560.836 1014.51 561.275 1013.41 561.275Z" fill="#263238"/>
<path opacity="0.4" d="M1013.41 561.275C1012.56 561.274 1011.72 561.011 1011.02 560.523C1010.32 560.034 1009.79 559.343 1009.5 558.542L1003.05 540.876H1017.57V557.113C1017.57 558.217 1017.13 559.275 1016.35 560.056C1015.57 560.836 1014.51 561.275 1013.41 561.275Z" fill="white"/>
<path d="M892.979 569.785C899.023 569.785 903.924 564.884 903.924 558.84C903.924 552.795 899.023 547.895 892.979 547.895C886.934 547.895 882.034 552.795 882.034 558.84C882.034 564.884 886.934 569.785 892.979 569.785Z" fill="#263238"/>
<path opacity="0.6" d="M898.457 558.84C898.46 557.756 898.141 556.695 897.54 555.793C896.94 554.89 896.085 554.186 895.084 553.769C894.083 553.353 892.981 553.242 891.917 553.452C890.854 553.662 889.877 554.183 889.109 554.949C888.342 555.715 887.819 556.691 887.606 557.754C887.394 558.817 887.502 559.919 887.916 560.921C888.33 561.923 889.032 562.779 889.934 563.382C890.835 563.984 891.895 564.306 892.979 564.306C893.698 564.308 894.41 564.167 895.074 563.894C895.739 563.62 896.343 563.217 896.852 562.709C897.361 562.202 897.765 561.598 898.04 560.934C898.316 560.27 898.457 559.559 898.457 558.84Z" fill="white"/>
<path d="M891.662 561.275C890.808 561.274 889.976 561.011 889.276 560.523C888.576 560.034 888.043 559.343 887.748 558.542L881.301 540.876H895.824V557.113C895.824 558.217 895.385 559.275 894.605 560.056C893.824 560.836 892.766 561.275 891.662 561.275Z" fill="#263238"/>
<path opacity="0.4" d="M891.662 561.275C890.808 561.274 889.976 561.011 889.276 560.523C888.576 560.034 888.043 559.343 887.748 558.542L881.301 540.876H895.824V557.113C895.824 558.217 895.385 559.275 894.605 560.056C893.824 560.836 892.766 561.275 891.662 561.275Z" fill="white"/>
<path d="M1016.27 447.95H900.42V528.142H1016.27V447.95Z" fill="#407BFF"/>
<path opacity="0.4" d="M1016.27 447.95H900.42V528.142H1016.27V447.95Z" fill="white"/>
<path opacity="0.2" d="M954.176 447.95H900.42V528.142H954.176V447.95Z" fill="white"/>
<path opacity="0.2" d="M949.095 511.184H942.374C941.742 511.184 941.231 511.696 941.231 512.327V521.508C941.231 522.139 941.742 522.651 942.374 522.651H949.095C949.726 522.651 950.238 522.139 950.238 521.508V512.327C950.238 511.696 949.726 511.184 949.095 511.184Z" fill="black"/>
<path opacity="0.2" d="M936.969 511.184H930.248C929.617 511.184 929.106 511.696 929.106 512.327V521.508C929.106 522.139 929.617 522.651 930.248 522.651H936.969C937.601 522.651 938.112 522.139 938.112 521.508V512.327C938.112 511.696 937.601 511.184 936.969 511.184Z" fill="black"/>
<path opacity="0.4" d="M991.359 447.95H984.811V456.31H991.359V447.95Z" fill="black"/>
<path opacity="0.2" d="M1009.26 482.188H964.164V492.673H1009.26V482.188Z" fill="black"/>
<path opacity="0.2" d="M919.341 452.124H903.923V467.541H919.341V452.124Z" fill="black"/>
<path d="M1028.09 367.757H912.247V447.95H1028.09V367.757Z" fill="#407BFF"/>
<path opacity="0.4" d="M1028.09 367.757H912.247V447.95H1028.09V367.757Z" fill="black"/>
<path opacity="0.2" d="M966.003 367.757H912.247V447.95H966.003V367.757Z" fill="white"/>
<path opacity="0.2" d="M960.934 430.992H954.213C953.582 430.992 953.07 431.504 953.07 432.135V441.316C953.07 441.947 953.582 442.459 954.213 442.459H960.934C961.565 442.459 962.077 441.947 962.077 441.316V432.135C962.077 431.504 961.565 430.992 960.934 430.992Z" fill="black"/>
<path opacity="0.2" d="M948.809 430.992H942.088C941.457 430.992 940.945 431.504 940.945 432.135V441.316C940.945 441.947 941.457 442.459 942.088 442.459H948.809C949.44 442.459 949.952 441.947 949.952 441.316V432.135C949.952 431.504 949.44 430.992 948.809 430.992Z" fill="black"/>
<path opacity="0.4" d="M1003.19 367.757H996.638V376.118H1003.19V367.757Z" fill="black"/>
<path opacity="0.2" d="M1021.09 401.996H975.991V412.481H1021.09V401.996Z" fill="black"/>
<path opacity="0.2" d="M931.18 371.932H915.763V387.349H931.18V371.932Z" fill="black"/>
<path d="M1099.01 367.757H983.159V447.95H1099.01V367.757Z" fill="#407BFF"/>
<path opacity="0.4" d="M1099.01 367.757H983.159V447.95H1099.01V367.757Z" fill="white"/>
<path opacity="0.2" d="M1036.91 367.757H983.159V447.95H1036.91V367.757Z" fill="white"/>
<path opacity="0.2" d="M1031.85 430.992H1025.13C1024.49 430.992 1023.98 431.504 1023.98 432.135V441.316C1023.98 441.947 1024.49 442.459 1025.13 442.459H1031.85C1032.48 442.459 1032.99 441.947 1032.99 441.316V432.135C1032.99 431.504 1032.48 430.992 1031.85 430.992Z" fill="black"/>
<path opacity="0.2" d="M1019.72 430.992H1013C1012.37 430.992 1011.86 431.504 1011.86 432.135V441.316C1011.86 441.947 1012.37 442.459 1013 442.459H1019.72C1020.35 442.459 1020.86 441.947 1020.86 441.316V432.135C1020.86 431.504 1020.35 430.992 1019.72 430.992Z" fill="black"/>
<path opacity="0.4" d="M1074.1 367.757H1067.55V376.118H1074.1V367.757Z" fill="black"/>
<path opacity="0.2" d="M1092 401.996H1046.9V412.481H1092V401.996Z" fill="black"/>
<path opacity="0.2" d="M1002.09 371.932H986.675V387.349H1002.09V371.932Z" fill="black"/>
<path d="M1058.94 287.565H943.094V367.757H1058.94V287.565Z" fill="#407BFF"/>
<path opacity="0.2" d="M996.85 287.565H943.094V367.757H996.85V287.565Z" fill="white"/>
<path opacity="0.2" d="M991.769 350.8H985.048C984.416 350.8 983.905 351.311 983.905 351.943V361.123C983.905 361.755 984.416 362.266 985.048 362.266H991.769C992.4 362.266 992.911 361.755 992.911 361.123V351.943C992.911 351.311 992.4 350.8 991.769 350.8Z" fill="black"/>
<path opacity="0.2" d="M979.656 350.8H972.935C972.304 350.8 971.792 351.311 971.792 351.943V361.123C971.792 361.755 972.304 362.266 972.935 362.266H979.656C980.287 362.266 980.799 361.755 980.799 361.123V351.943C980.799 351.311 980.287 350.8 979.656 350.8Z" fill="black"/>
<path opacity="0.4" d="M1034.03 287.565H1027.49V295.926H1034.03V287.565Z" fill="black"/>
<path opacity="0.2" d="M1051.93 321.804H1006.84V332.289H1051.93V321.804Z" fill="black"/>
<path opacity="0.2" d="M962.015 291.739H946.597V307.157H962.015V291.739Z" fill="black"/>
<path d="M1089.99 447.95H974.14V528.142H1089.99V447.95Z" fill="#263238"/>
<path opacity="0.2" d="M1089.99 447.95H974.14V528.142H1089.99V447.95Z" fill="white"/>
<path opacity="0.2" d="M1027.9 447.95H974.14V528.142H1027.9V447.95Z" fill="white"/>
<path opacity="0.2" d="M1022.81 511.184H1016.09C1015.46 511.184 1014.95 511.696 1014.95 512.327V521.508C1014.95 522.139 1015.46 522.651 1016.09 522.651H1022.81C1023.45 522.651 1023.96 522.139 1023.96 521.508V512.327C1023.96 511.696 1023.45 511.184 1022.81 511.184Z" fill="black"/>
<path opacity="0.2" d="M1010.69 511.184H1003.97C1003.34 511.184 1002.83 511.696 1002.83 512.327V521.508C1002.83 522.139 1003.34 522.651 1003.97 522.651H1010.69C1011.32 522.651 1011.83 522.139 1011.83 521.508V512.327C1011.83 511.696 1011.32 511.184 1010.69 511.184Z" fill="black"/>
<path opacity="0.4" d="M1065.08 447.95H1058.53V456.31H1065.08V447.95Z" fill="black"/>
<path opacity="0.2" d="M1082.98 482.188H1037.88V492.673H1082.98V482.188Z" fill="black"/>
<path opacity="0.2" d="M993.061 452.124H977.643V467.541H993.061V452.124Z" fill="black"/>
<defs>
<linearGradient id="paint0_linear_0_1" x1="1280" y1="707.5" x2="9.99999" y2="341.5" gradientUnits="userSpaceOnUse">
<stop stop-color="#12239E"/>
<stop offset="0.13886" stop-color="#0E1B79"/>
<stop offset="1" stop-color="#060C38"/>
</linearGradient>
</defs>
</svg>
